<svg fill="#FF0900" xmlns="http://www.w3.org/2000/svg" xmlns:xlink="http://www.w3.org/1999/xlink" version="1.1" x="0px" y="0px" viewBox="0 0 100 100" style="enable-background:new 0 0 100 100;" xml:space="preserve"><g><path d="M59.632,75.107v-2.822c0-4.96,2.015-9.725,5.529-13.073c4.396-4.189,6.817-9.839,6.817-15.909   c0-12.119-9.859-21.978-21.978-21.978c-0.827,0-1.667,0.046-2.496,0.138c-10.5,1.161-18.86,10.013-19.447,20.591   c-0.354,6.379,2.066,12.583,6.64,17.02c3.604,3.496,5.671,8.31,5.671,13.208v2.824c0,2.999,2.439,5.438,5.438,5.438h8.387   C57.192,80.546,59.632,78.106,59.632,75.107z M55.632,75.107c0,0.793-0.646,1.438-1.438,1.438h-8.387   c-0.793,0-1.438-0.646-1.438-1.438v-2.824c0-5.973-2.51-11.833-6.886-16.079c-3.741-3.629-5.721-8.706-5.431-13.927   c0.48-8.65,7.312-15.888,15.893-16.837c0.684-0.076,1.376-0.114,2.057-0.114c9.913,0,17.978,8.064,17.978,17.978   c0,4.965-1.98,9.586-5.576,13.013c-4.302,4.099-6.77,9.919-6.77,15.969V75.107z"></path><path d="M56.509,82.521H43.491c-0.829,0-1.5,0.671-1.5,1.5s0.671,1.5,1.5,1.5h13.019c0.829,0,1.5-0.671,1.5-1.5   S57.338,82.521,56.509,82.521z"></path><path d="M58.009,88.761c0-0.829-0.671-1.5-1.5-1.5H43.491c-0.829,0-1.5,0.671-1.5,1.5s0.671,1.5,1.5,1.5h13.019   C57.338,90.261,58.009,89.589,58.009,88.761z"></path><path d="M14.733,43.267h8.643c0.829,0,1.5-0.671,1.5-1.5s-0.671-1.5-1.5-1.5h-8.643c-0.829,0-1.5,0.671-1.5,1.5   S13.904,43.267,14.733,43.267z"></path><path d="M86.767,41.767c0-0.829-0.671-1.5-1.5-1.5h-8.643c-0.829,0-1.5,0.671-1.5,1.5s0.671,1.5,1.5,1.5h8.643   C86.096,43.267,86.767,42.596,86.767,41.767z"></path><path d="M48.5,6.5v8.643c0,0.829,0.671,1.5,1.5,1.5s1.5-0.671,1.5-1.5V6.5C51.5,5.671,50.829,5,50,5S48.5,5.671,48.5,6.5z"></path><path d="M73.877,15.769l-6.111,6.111c-0.586,0.585-0.586,1.536,0,2.121c0.293,0.293,0.677,0.439,1.061,0.439   s0.768-0.146,1.061-0.439l6.111-6.111c0.586-0.585,0.586-1.536,0-2.121C75.412,15.183,74.463,15.183,73.877,15.769z"></path><path d="M32.234,59.533c-0.586-0.586-1.535-0.586-2.121,0l-6.111,6.111c-0.586,0.585-0.586,1.535,0,2.121   c0.293,0.293,0.677,0.439,1.061,0.439s0.768-0.146,1.061-0.439l6.111-6.111C32.82,61.069,32.82,60.119,32.234,59.533z"></path><path d="M30.113,24.001c0.293,0.293,0.677,0.439,1.061,0.439s0.768-0.146,1.061-0.439c0.586-0.585,0.586-1.536,0-2.121   l-6.111-6.111c-0.586-0.586-1.535-0.586-2.121,0c-0.586,0.585-0.586,1.536,0,2.121L30.113,24.001z"></path><path d="M73.877,67.765c0.293,0.293,0.677,0.439,1.061,0.439s0.768-0.146,1.061-0.439c0.586-0.586,0.586-1.536,0-2.121   l-6.111-6.111c-0.586-0.586-1.535-0.586-2.121,0s-0.586,1.536,0,2.121L73.877,67.765z"></path><path d="M54.754,93.5c0-0.829-0.671-1.5-1.5-1.5h-6.509c-0.829,0-1.5,0.671-1.5,1.5s0.671,1.5,1.5,1.5h6.509   C54.083,95,54.754,94.329,54.754,93.5z"></path></g></svg>